<?xml version="1.0" encoding="utf-8"?>
<!-- Generator: Adobe Illustrator 25.4.1, SVG Export Plug-In . SVG Version: 6.00 Build 0)  -->
<svg version="1.1" id="Calque_1" xmlns="http://www.w3.org/2000/svg" xmlns:xlink="http://www.w3.org/1999/xlink" x="0px" y="0px"
	 viewBox="0 0 1920 1080" enable-background="new 0 0 1920 1080" xml:space="preserve">
<g>
	<g>
		<line fill="none" stroke="#000000" stroke-miterlimit="10" x1="569.9" y1="850.5" x2="569.9" y2="850"/>
		
			<line fill="none" stroke="#000000" stroke-miterlimit="10" stroke-dasharray="0.9978,2.9934" x1="569.9" y1="847" x2="569.9" y2="170"/>
		<line fill="none" stroke="#000000" stroke-miterlimit="10" x1="569.9" y1="168.5" x2="569.9" y2="168"/>
	</g>
</g>
<g>
	<g>
		<line fill="none" stroke="#000000" stroke-miterlimit="10" x1="697" y1="850.5" x2="697" y2="850"/>
		
			<line fill="none" stroke="#000000" stroke-miterlimit="10" stroke-dasharray="0.9978,2.9934" x1="697" y1="847" x2="697" y2="170"/>
		<line fill="none" stroke="#000000" stroke-miterlimit="10" x1="697" y1="168.5" x2="697" y2="168"/>
	</g>
</g>
<g>
	<g>
		<line fill="none" stroke="#000000" stroke-miterlimit="10" x1="442.8" y1="850.5" x2="442.8" y2="850"/>
		
			<line fill="none" stroke="#000000" stroke-miterlimit="10" stroke-dasharray="0.9978,2.9934" x1="442.8" y1="847" x2="442.8" y2="170"/>
		<line fill="none" stroke="#000000" stroke-miterlimit="10" x1="442.8" y1="168.5" x2="442.8" y2="168"/>
	</g>
</g>
<g>
	<g>
		<line fill="none" stroke="#000000" stroke-miterlimit="10" x1="471.6" y1="850.5" x2="471.6" y2="850"/>
		
			<line fill="none" stroke="#000000" stroke-miterlimit="10" stroke-dasharray="0.9978,2.9934" x1="471.6" y1="847" x2="471.6" y2="170"/>
		<line fill="none" stroke="#000000" stroke-miterlimit="10" x1="471.6" y1="168.5" x2="471.6" y2="168"/>
	</g>
</g>
<g>
	<g>
		<line fill="none" stroke="#000000" stroke-miterlimit="10" x1="598.6" y1="850.5" x2="598.6" y2="850"/>
		
			<line fill="none" stroke="#000000" stroke-miterlimit="10" stroke-dasharray="0.9978,2.9934" x1="598.6" y1="847" x2="598.6" y2="170"/>
		<line fill="none" stroke="#000000" stroke-miterlimit="10" x1="598.6" y1="168.5" x2="598.6" y2="168"/>
	</g>
</g>
<g>
	<g>
		<line fill="none" stroke="#000000" stroke-miterlimit="10" x1="725.7" y1="850.5" x2="725.7" y2="850"/>
		
			<line fill="none" stroke="#000000" stroke-miterlimit="10" stroke-dasharray="0.9978,2.9934" x1="725.7" y1="847" x2="725.7" y2="170"/>
		<line fill="none" stroke="#000000" stroke-miterlimit="10" x1="725.7" y1="168.5" x2="725.7" y2="168"/>
	</g>
</g>
<g>
	<g>
		<line fill="none" stroke="#FF0000" stroke-width="3" stroke-miterlimit="10" x1="598.6" y1="319.4" x2="598.6" y2="376.7"/>
		<g>
			<rect x="588.9" y="317.9" fill="#FF0000" width="19.5" height="3"/>
		</g>
		<g>
			<rect x="588.9" y="375.2" fill="#FF0000" width="19.5" height="3"/>
		</g>
	</g>
</g>
<g>
	<g>
		<line fill="none" stroke="#0000FF" stroke-width="3" stroke-miterlimit="10" x1="569.9" y1="443.4" x2="569.9" y2="819"/>
		<g>
			<rect x="560.1" y="441.9" fill="#0000FF" width="19.5" height="3"/>
		</g>
		<g>
			<rect x="560.1" y="817.5" fill="#0000FF" width="19.5" height="3"/>
		</g>
	</g>
</g>
<g>
	<g>
		<line fill="none" stroke="#FF0000" stroke-width="3" stroke-miterlimit="10" x1="725.7" y1="561.4" x2="725.7" y2="618.7"/>
		<g>
			<rect x="716" y="559.9" fill="#FF0000" width="19.5" height="3"/>
		</g>
		<g>
			<rect x="716" y="617.2" fill="#FF0000" width="19.5" height="3"/>
		</g>
	</g>
</g>
<g>
	<g>
		<line fill="none" stroke="#0000FF" stroke-width="3" stroke-miterlimit="10" x1="697" y1="443.4" x2="697" y2="819"/>
		<g>
			<rect x="687.2" y="441.9" fill="#0000FF" width="19.5" height="3"/>
		</g>
		<g>
			<rect x="687.2" y="817.5" fill="#0000FF" width="19.5" height="3"/>
		</g>
	</g>
</g>
<g>
	<g>
		<line fill="none" stroke="#FF0000" stroke-width="3" stroke-miterlimit="10" x1="471.6" y1="319.4" x2="471.6" y2="831.7"/>
		<g>
			<rect x="461.8" y="317.9" fill="#FF0000" width="19.5" height="3"/>
		</g>
		<g>
			<rect x="461.8" y="830.2" fill="#FF0000" width="19.5" height="3"/>
		</g>
	</g>
</g>
<g>
	<g>
		<line fill="none" stroke="#0000FF" stroke-width="3" stroke-miterlimit="10" x1="442.8" y1="443.4" x2="442.8" y2="819"/>
		<g>
			<rect x="433.1" y="441.9" fill="#0000FF" width="19.5" height="3"/>
		</g>
		<g>
			<rect x="433.1" y="817.5" fill="#0000FF" width="19.5" height="3"/>
		</g>
	</g>
</g>
<line fill="none" stroke="#FF0000" stroke-width="3" stroke-miterlimit="10" x1="414.1" y1="218.4" x2="471.6" y2="218.4"/>
</svg>
